<?xml version="1.0" encoding="utf-8"?>
<!-- Generator: Adobe Illustrator 24.0.1, SVG Export Plug-In . SVG Version: 6.00 Build 0)  -->
<svg version="1.1" id="Capa_1" xmlns="http://www.w3.org/2000/svg" xmlns:xlink="http://www.w3.org/1999/xlink" x="0px" y="0px"
	 viewBox="0 0 3508 4961" style="enable-background:new 0 0 3508 4961;" xml:space="preserve">
<style type="text/css">
	.st0{clip-path:url(#SVGID_2_);fill:#FFFFFF;}
	.st1{clip-path:url(#SVGID_2_);fill:#575757;}
	.st2{clip-path:url(#SVGID_2_);fill:#FFE600;}
	.st3{clip-path:url(#SVGID_2_);}
	.st4{clip-path:url(#SVGID_2_);fill:none;stroke:#000000;stroke-width:8;stroke-linecap:round;stroke-linejoin:round;}
	.st5{clip-path:url(#SVGID_4_);}
	.st6{fill:none;stroke:#FFE600;stroke-width:20;stroke-linecap:round;stroke-linejoin:round;}
</style>
<g>
	<defs>
		<rect id="SVGID_1_" width="3508" height="4961"/>
	</defs>
	<clipPath id="SVGID_2_">
		<use xlink:href="#SVGID_1_"  style="overflow:visible;"/>
	</clipPath>
	<title>Aera</title>
	<polygon class="st0" points="498.6,494.6 2755.9,531.3 2925.6,4077.7 1113.4,3985.9 	"/>
	<path class="st1" d="M2503,3451.4c193.5,87.9,221.7-547.2,221.7-547.2c-135.4,297.8-300.9,502.1-512.8,677.8
		C2167.4,3618.9,2443.3,3424.3,2503,3451.4z"/>
	<path class="st2" d="M3545.5,5052.1l-2442.7,63.8c0,0,418.9-1399,316.1-1525.3c112.5,103.1,216.7,165.7,358.5,166.3
		c318.2,45.7,703.2-46.7,737.4-145.3l-0.8-21.3c258.1,22.1,1088-115.1,1088-115.1L3545.5,5052.1z"/>
	<path class="st2" d="M1459.3,3201.3c99.9-13.8,133.5-93.5,214.1-111c38.7-8.4,53.3,12.2,111,11.9s86.6-21.3,119.6-13
		c89.2,22.4,150.3,98.4,224.9,111.6c-88.2,25.9-116.1,129.4-176.8,143.7c-68.8,16.2-254.2,21.6-325.4-3.4
		C1512.4,3301,1564.6,3226.6,1459.3,3201.3z"/>
	<path class="st3" d="M1931.4,4965.7c-260.8-440.7,2.3-420.4-136.8-856c-70.2-219.7-272.9-392.8-375.7-519.1
		c-105.2-129.3-124.1-452.4-140-636.6c-21.1-243.1-152.5-748.6-158.9-1004.5c-5.4-213.8,233.5-530.4,158.7-903.2
		c207-113.1,310.5-272.5,310.5-272.5c173.3-27.5,375.9,102.2,652.8,285.4c81.8,782.6,306.1,828.1,333,904.2
		c35.8,101.6,79.6,681.4,149.9,940.9c-154.1,312.5-204,355.2-280.3,449.4c9,213,70.4,258,70.4,258l-0.8-21.3
		c258.1,22.1,234.4,54.1,289.6,246.8c2.7,9.4,41.8,32.4,69.3,68.1c23.9,31,35.3,75,54.4,83.6c23.3,10.4,138.9,98.9,583.1,156.3
		c1036.5,133.9,151.7-4269,151.7-4269l-3772.6-57.7l-26.9,5159.4C-137.4,4977.9,2201.1,5421.4,1931.4,4965.7z"/>
	<path class="st3" d="M2243,2604.9c0-9.7,6.8-17.5,15.3-17.5s15.3,7.8,15.3,17.5s-6.8,17.5-15.3,17.5S2243,2614.5,2243,2604.9z"/>
	<path class="st3" d="M1726.3,2880.8c-5.6,7.6-21.1-2.2-21.1-2.2s-68.4,7.1-94.6-5.5c-21-10-15.8-25.1,4.6-28.3
		c14.5-2.2,59.5-1.5,69.7,2.9C1711.1,2859.4,1732,2873,1726.3,2880.8z"/>
	<path class="st3" d="M1848.1,2880.8c5.6,7.6,21.1-2.2,21.1-2.2s68.4,7.1,94.6-5.5c21-10,15.8-25.1-4.6-28.3
		c-14.5-2.2-59.5-1.5-69.7,2.9C1863.3,2859.4,1842.3,2873,1848.1,2880.8z"/>
	<path class="st1" d="M1702.5,3390.6c21.4-9.3,140.8-9.6,163.2,0s-29.9,42.6-81.4,42.6C1736.3,3433.2,1681.1,3400,1702.5,3390.6z"/>
	<path class="st4" d="M1455.1,3198.6c142.1,44,207.2,8.1,239.3,8.9c18.3,0.4,32.9,18.5,90.6,18.5c62.2,0,75.8-19.7,97.2-19.2
		c56.2,1.3,115.2,34.8,250.9-8.3"/>
	<path class="st3" d="M1430.8,3198.6c0-6.1,7.4-11,16.7-11s16.7,4.9,16.7,11s-7.5,11.1-16.7,11.1S1430.8,3204.7,1430.8,3198.6z"/>
	<path class="st3" d="M2124.5,3198.6c0-6.1,7.4-11,16.6-11s16.6,4.9,16.6,11s-7.4,11.1-16.6,11.1S2124.5,3204.7,2124.5,3198.6z"/>
	<path class="st4" d="M2724.7,2904.2c-163.8,360.2-371.6,583.6-652.4,785.3c-80.3,57.7-160.1,64.7-266.5,66.6
		c-93.6,1.7-173.2-5.6-274.3-77.6c-131.8-93.9-200.4-180.4-200.4-180.4"/>
	<path class="st4" d="M2082.3,2187.1c0,0-0.1,4.6,77.4,0c267.8,50.2,364.2-46.1,364.2-46.1s14.1,1.7-10.5,16.8
		c-134,82-353.7,29.3-353.7,29.3"/>
	<path class="st3" d="M2071.1,2148.3c-90.9,124,202.4-251.4,469.7-36.2c8.2,6.6,40.4-46,40.4-58.8
		C2581.2,1984,2230.3,1931.3,2071.1,2148.3z"/>
	<path class="st3" d="M2205.1,2126c0-41.7,34.8-75.6,77.6-75.6s77.6,33.8,77.6,75.6s-34.8,75.6-77.6,75.6S2205.1,2167.7,2205.1,2126
		z"/>
	<path class="st4" d="M2212.6,2242c22.4,15,105.1,13,166.8-13.8"/>
	<path class="st4" d="M2202.8,1963.8c0,0,93.2-23.3,128.8-23.3c28.7,0,83.9,20.1,83.9,20.1"/>
	<path class="st3" d="M2346,1751.5c-37.1,3.8-221.5,97.5-257.6,163.8c-9.6,17.7,99.5-70.3,229.4-88.3c72.2-10,167.9,21.2,182.1,18.3
		c49.1-10.3,54.3-28.9,15.8-52.3S2370.5,1749,2346,1751.5z"/>
	<path class="st4" d="M1436.1,2187.1c0,0,0,4.6-77.4,0c-267.8,50.2-364.2-46.1-364.2-46.1"/>
	<path class="st3" d="M1447.3,2148.3c90.9,124-202.5-251.4-469.7-36.2c-8.2,6.6-40.4-46-40.4-58.8
		C937.1,1984,1288,1931.3,1447.3,2148.3z"/>
	<ellipse class="st3" cx="1235.7" cy="2126" rx="77.6" ry="75.6"/>
	<path class="st4" d="M1305.7,2242c-22.4,15-105.1,13-166.8-13.8"/>
	<path class="st4" d="M1315.6,1963.8c0,0-93.2-23.3-128.8-23.3c-28.7,0-83.9,20.1-83.9,20.1"/>
	<path class="st3" d="M1172.4,1751.5c37.2,3.8,221.5,97.5,257.6,163.8c9.6,17.7-99.5-70.3-229.4-88.3
		c-72.2-10-167.9,21.2-182.1,18.3c-49.1-10.3-54.3-28.9-15.8-52.3S1147.8,1749,1172.4,1751.5z"/>
	<path class="st4" d="M1436.1,2187.1c0,0,0,4.6-77.4,0c-267.8,50.2-364.2-46.1-364.2-46.1s-14.1,1.7,10.5,16.8
		c134,82,353.7,29.3,353.7,29.3"/>
	<path class="st4" d="M2624.6,2114c0,0-11.6,709.4,110.7,869.7"/>
	<path class="st4" d="M1587.4,772.6c197,31.5,328,60.5,656,289"/>
	<path class="st4" d="M1260.9,1055.4c144.3,328.5-174,832.8-174,832.8s149.6,676.9,225.1,1129.9s-41.7,475.9,76.9,682.1"/>
	<g class="st3">
		<defs>
			<path id="SVGID_3_" d="M1726.3,2880.8c5.7-7.8-15.2-21.4-41.4-33l-22.7,144.8l250,11.8c0,0-12.5-161.1-22.7-156.6
				c-26.3,11.6-47.2,25.2-41.4,33C1853.6,2888.4,1720.7,2888.4,1726.3,2880.8z"/>
		</defs>
		<clipPath id="SVGID_4_">
			<use xlink:href="#SVGID_3_"  style="overflow:visible;"/>
		</clipPath>
		<g class="st5">
			<ellipse class="st6" cx="1787" cy="2891.2" rx="89.2" ry="88.9"/>
		</g>
	</g>
</g>
</svg>
