<?xml version="1.0" encoding="utf-8"?>
<!-- Generator: Adobe Illustrator 24.0.1, SVG Export Plug-In . SVG Version: 6.00 Build 0)  -->
<svg version="1.1" id="Capa_1" xmlns="http://www.w3.org/2000/svg" xmlns:xlink="http://www.w3.org/1999/xlink" x="0px" y="0px"
	 viewBox="0 0 1417.3 1044.5" style="enable-background:new 0 0 1417.3 1044.5;" xml:space="preserve">
<style type="text/css">
	.st0{enable-background:new    ;}
	.st1{fill:#FFFFFF;}
	.st2{fill:#FF0000;}
</style>
<title>M.R USA</title>
<g class="st0">
	<path class="st1" d="M296.9,236.2c0,2.3-2.6,4.8-6.2,4.8h-31.2c-3.7,0-6.2-2.6-6.2-4.8v-91.9c-14.2,28.6-28.6,57.3-42.8,85.9
		c-0.3,1.1-3.7,3.1-5.1,3.1h-29.8c-1.7,0-4.8-1.7-5.4-3.1v0.3l-46.2-89.3v95c0,2.3-2.6,4.8-6,4.8H86.2c-4,0-5.7-2.6-5.7-4.8V47.4
		c0-2.6,1.7-5.1,5.7-5.1h32.3c2,0,4.8,2,5.4,3.1l66.4,135l63-135c0.6-1.4,4-3.1,5.7-3.1h31.8c3.7,0,6.2,2.6,6.2,5.1V236.2z"/>
	<path class="st1" d="M369.2,220.9c0,12.2-9.9,21.8-23,21.8c-12.5,0-22.7-9.6-22.7-21.8c0-11.9,10.2-22.1,22.7-22.1
		C359.3,198.8,369.2,209,369.2,220.9z"/>
	<path class="st1" d="M495.4,241.1c-1.7,0-4.8-1.4-5.4-2.8l0.3,0.3l-47.6-76h-8.5v73.7c0,2.3-2.3,4.8-6,4.8h-31.5
		c-3.4,0-6-2.6-6-4.8v-110c0-2.6,2.6-5.1,6-5.1h20.4c-3.7-6.2-7.9-11.9-11.9-18.2l-14.5-23.3v-32c0-2.6,2.6-5.1,6-5.1h63
		c0,0,68.9,0,68.9,59.8c0,33.5-20.4,48.2-39.1,54.7l47.6,76.6v-0.3c2.6,3.7,0,7.7-4.5,7.7H495.4z M465.1,120.8
		c9.1-0.6,19.9-4.5,19.9-18.4c0-18.4-19.9-18.4-25.2-18.4h-17.9L465.1,120.8z"/>
</g>
<path class="st1" d="M501.8,1020.5h-7.7v-58.1c0-0.8,0.3-3.2,0.8-7.2l-15,56.7h-1.6l-15-56.7c0.5,4,0.8,6.4,0.8,7.2v58.1h-7.7v-91.7
	h7.6l14.9,59.7c0.1,0.3,0.2,1.2,0.2,2.6c0-0.6,0.1-1.5,0.2-2.6l14.9-59.7h7.6V1020.5z"/>
<path class="st1" d="M557.9,1020.5h-5.6L527.8,953v67.5h-7.7v-91.7h6.1l24,66.3v-66.3h7.7V1020.5z"/>
<path class="st1" d="M613.9,1020.5h-9l-21.2-44.1v44.1h-8.1v-91.7h8.1V970l19.2-41.2h8.9v0.5l-20.7,43.7L613.9,1020.5z"/>
<path class="st1" d="M659,1020.5h-30.1v-91.7h29.8v7.2H637v34.2h19.7v7.3H637v35.8h22V1020.5z"/>
<path class="st1" d="M715.2,1020.5h-8.6l-17.1-49.1l1.1-1.6h14.5V936h-20.9v84.5h-8.1v-91.7h30.7c1.9,0,3.5,0.6,4.7,1.8
	c1.2,1.2,1.8,2.8,1.8,4.7v34.8c0,4.4-3,6.6-8.9,6.6c-0.6,0-1.4,0-2.6-0.1c-1.1-0.1-2-0.1-2.5-0.1
	C704.7,991.1,709.9,1005.8,715.2,1020.5z"/>
<path class="st1" d="M817.7,928.8l-12.5,92h-6.6l-10-69.2c0-1.2-0.1-3-0.2-5.4c0,1.3-0.1,3-0.2,5.4l-10,69.2h-6.6l-12.5-92h8.1
	l7.8,66.2c0,1.5,0.1,3.7,0.2,6.6c0-1.5,0-3.7,0.2-6.6l9.5-66.2h7l9.4,66.2c0.1,1.5,0.2,3.7,0.2,6.6c0-1.5,0.1-3.7,0.3-6.6l7.8-66.2
	H817.7z"/>
<path class="st1" d="M864.2,1020.5h-30.1v-91.7h29.8v7.2h-21.6v34.2h19.7v7.3h-19.7v35.8h22V1020.5z"/>
<path class="st1" d="M920.4,1020.5h-8.1l-3.2-20.4h-18.2l-3.2,20.4h-7.9v-0.2l16.4-91.7h8L920.4,1020.5z M908.1,992.9l-8-49.7
	l-8.1,49.7H908.1z"/>
<path class="st1" d="M975.9,1020.5h-8.6l-17.1-49.1l1.1-1.6h14.5V936H945v84.5h-8.1v-91.7h30.7c1.9,0,3.5,0.6,4.7,1.8
	c1.2,1.2,1.8,2.8,1.8,4.7v34.8c0,4.4-3,6.6-8.9,6.6c-0.6,0-1.4,0-2.6-0.1c-1.1-0.1-2-0.1-2.5-0.1
	C965.4,991.1,970.6,1005.8,975.9,1020.5z"/>
<rect y="658.8" class="st2" width="1417.3" height="94.7"/>
<rect y="500.9" class="st2" width="1417.3" height="94.7"/>
<rect y="343" class="st2" width="1417.3" height="94.7"/>
<rect x="629.8" y="185.1" class="st2" width="787.5" height="94.7"/>
<rect x="629.8" y="27.2" class="st2" width="787.5" height="94.7"/>
</svg>
