<svg id="Capa_1" data-name="Capa 1" xmlns="http://www.w3.org/2000/svg" viewBox="0 0 4881.78 1696.89"><defs><style>.cls-1{fill:#fff;}</style></defs><title>Mnker logo</title><path class="cls-1" d="M0,0V1696.89H4881.78V0ZM1142.24,1171.44c0,7.75-8.7,16.46-21.29,16.46H1014.49c-12.58,0-21.3-8.71-21.3-16.46V857.86c-48.39,97.75-97.75,195.5-146.15,293.26-1,3.87-12.57,10.65-17.41,10.65H728c-5.81,0-16.46-5.81-18.39-10.65v1L551.89,847.21v324.23c0,7.75-8.71,16.46-20.33,16.46H423.12c-13.54,0-19.36-8.71-19.36-16.46V526.85c0-8.71,5.82-17.43,19.36-17.43H533.46c6.78,0,16.45,6.78,18.39,10.65l226.48,460.7,214.86-460.7c1.94-4.84,13.55-10.65,19.36-10.65H1121c12.59,0,21.29,8.72,21.29,17.43Zm916.56,0c0,7.75-7.74,16.46-20.33,16.46h-108.4c-3.87,0-12.58-1.94-16.45-6.78-98.73-141.31-182.93-262.29-282.62-404.56v394.89c0,7.75-8.7,16.46-20.33,16.46H1502.28c-11.61,0-20.33-8.71-20.33-16.46V527.81c0-8.71,8.72-17.41,20.33-17.41h109.37c3.87,0,12.58,1.93,16.45,6.76,96.79,139.4,185.79,263.26,283.59,403.61v-393c0-8.71,7.74-17.41,20.32-17.41h106.46c12.59,0,20.33,8.7,20.33,17.41Zm863.32,16.46H2780.81c-3.87,0-14.52-4.84-16.45-6.78L2581.43,954.64l-8.7,10.65v-1c-10.65,11.62-19.37,23.23-31,34.84v172.28c0,7.75-8.71,16.46-20.33,16.46H2414c-12.58,0-21.29-8.71-21.29-16.46V527.81c0-8.71,8.71-17.41,21.29-17.41h107.43c11.62,0,20.33,8.7,20.33,17.41V796.88c75.5-93.88,152-186.8,227.45-279.72,1.94-1.93,12.58-6.76,16.45-6.76H2920.2c17.41,0,27.1,14.52,15.48,27.09L2678.22,855l259.38,305.8c11.63,12.58,1.94,27.1-15.48,27.1Zm759.77-16.46c0,7.75-8.71,16.46-21.29,16.46H3231.84c-12.59,0-20.33-8.71-20.33-16.46V527.81c0-8.71,7.74-17.41,20.33-17.41h421c11.62,0,20.33,8.7,20.33,17.41V631.38c0,8.71-8.71,17.41-20.33,17.41H3359.59v129.7h247.78c11.61,0,19.35,8.71,19.35,17.43V900.44c0,7.74-7.74,16.46-19.35,16.46H3359.59v129.66h301c12.58,0,21.29,8.71,21.29,17.42Zm777.19,16.46H4332.29c-5.81,0-16.45-4.84-18.39-9.68l1,1L4152.3,919.83h-29v251.64c0,7.75-7.75,16.46-20.33,16.46H3995.48c-11.62,0-20.33-8.71-20.33-16.46V795.92c0-8.72,8.71-17.43,20.33-17.43h69.68c-12.59-21.29-27.09-40.65-40.65-61.94l-49.36-79.37V527.81c0-8.71,8.71-17.41,20.33-17.41h214.86s235.19,0,235.19,204.21c0,114.21-69.68,164.53-133.57,186.79l162.61,261.33v-1c8.7,12.61,0,26.17-15.49,26.17ZM4210.34,651.7h-61l79.39,125.86c31-1.94,67.75-15.5,67.75-62.92C4296.48,651.7,4228.73,651.7,4210.34,651.7Z"/></svg>