<svg id="SKATEPARK" xmlns="http://www.w3.org/2000/svg" viewBox="0 0 2589.76 1155.21"><defs><style>.cls-1{fill:#fff;}</style></defs><title>SKATEPARK</title><g id="SKATEPARK-2"><path class="cls-1" d="M143,570a56.4,56.4,0,0,0-2.31-17.37,79.14,79.14,0,0,0-8.06-16.22L12.72,334.81Q3.49,318.6,1.72,307A172.26,172.26,0,0,1,0,281.53V70.67Q0,33.59,20.83,16.8T78.72,0h77.56q37,0,57.88,16.84t20.84,54V274H143V82.76H92V274a50.11,50.11,0,0,0,2.88,18,114.56,114.56,0,0,0,7.5,15.64l113,190a120.82,120.82,0,0,1,10.38,18.55,133.05,133.05,0,0,1,5.77,16.22,85.45,85.45,0,0,1,2.89,18.53q.56,10.42.58,25.48v197q0,37.08-20.84,53.88t-57.87,16.8H78.72q-37,0-57.89-16.83T0,773.27V570H92V761.2h51Zm53-331V86.8q0-26.72-9.83-37.75t-36.39-11H86.26q-26.58,0-36.41,10.44T40,85.6V269.9A201.53,201.53,0,0,0,41.76,296q1.73,13.33,7.48,22.59L168.93,519.2q9.19,15.07,12.66,27.25T185,576V756.89q0,19.73-7.52,28.42T150.33,794H86.72Q67,794,59.53,785.31T52,756.92V605.09H41V756.92q0,26.67,9.81,37.88T87.23,806h63.56q26.58,0,36.39-11T197,757.31V576.42q0-19.71-4.06-33.62T178.5,512.64l-117-196a61.89,61.89,0,0,1-8.11-20.87A129.84,129.84,0,0,1,51,270.27V85.93q0-19.7,7.52-27.81T85.76,50h63.59q19.69,0,27.19,8.7T184,87.11V239Z" transform="translate(-0.03 0)"/><path class="cls-1" d="M391.35,0V379h18.37l54-379h90.19L491.32,384q17.3,2.33,26.53,9.27a40.64,40.64,0,0,1,13.27,16.23,57.19,57.19,0,0,1,4.63,19.69q.56,10.43.58,19.7V844h-91V463h-54V844h-92V0Zm-53,34.84V809.46h12V427H461.24q23.11,0,23.11,24.33V809.47h11.59V451.32q0-36.33-34.36-36.33H451.35L512.1,33.68H499.35L438.35,415h-88V34.84Z" transform="translate(-0.03 0)"/><path class="cls-1" d="M603.1,75.36q0-31.29,22-53.33T678.52,0h87.06Q796.95,0,819,22t22,53.36V844H749V463H695V844H603Zm197,734.11V84.73q0-26.67-9.87-37.7T753.64,36H688.58Q661.87,36,652,46.48t-9.87,37.11V809.5h12V427h134V809.47ZM654.1,83.53q0-19.69,6.92-27.81T687.6,47.6h67q19.64,0,26.56,8.7t6.94,28.39V415h-134Zm95-1.23h-54V379h54Z" transform="translate(-0.03 0)"/><path class="cls-1" d="M1121.87,0V83h-67V844h-99V83h-67V0ZM923.54,48h75.33V809.47h12V48h76.5V36H923.55Z" transform="translate(-0.03 0)"/><path class="cls-1" d="M1174.72,844V0h192V83h-100V379h84v84h-84V762h100v82Zm157.62-46H1225.72V427h90.41V415h-90.41l-.23-367h106.62V36H1213.72V809h118.62Z" transform="translate(-0.03 0)"/><path class="cls-1" d="M1511.31,463V844h-92V0H1580q31.2,0,53.75,22t22.55,53.38V392.2q0,30.19-20.72,50.48T1583.81,463Zm59.7-36q26.63,0,36.45-11.08T1617.3,378V86.73q0-26.67-9.87-37.7t-36.55-11H1458.31V806h12V427Zm-100.7-12V50h101.13q19.75,0,27.31,8.7t7.56,28.39V378q0,19.67-7.56,28.33T1571.44,415Zm95-36V82.3h-54V379Z" transform="translate(-0.03 0)"/><path class="cls-1" d="M1720.72,75.36q0-31.29,22-53.33t53.42-22h87.06q31.36,0,53.41,22t22.06,53.33V844h-92V463h-54V844h-92Zm197,734.11V84.73q0-26.67-9.87-37.7t-36.59-11H1806.2q-26.71,0-36.59,10.45t-9.87,37.11V809.5h12V427h134V809.47Zm-146-725.94q0-19.69,6.92-27.81t26.58-8.12h67q19.63,0,26.56,8.7t6.94,28.39V415h-134Zm95-1.23h-54V379h54Z" transform="translate(-0.03 0)"/><path class="cls-1" d="M2189.84,0Q2221,0,2243,22t22,52.17V354.84a196.68,196.68,0,0,1-1.16,20.3,52.33,52.33,0,0,1-6.36,20.3,48,48,0,0,1-15.61,16.25q-10.41,7-27.75,9.27,35.84,5.81,43.36,24.92a102.84,102.84,0,0,1,7.52,37.66V844h-91V463h-54V844h-92V0ZM2226,809.47v-321a97.18,97.18,0,0,0-9.23-41.72q-9.23-19.69-35.73-25.7,26.51-5.79,35.73-25.53a97.3,97.3,0,0,0,9.23-41.78v-267q0-26.7-9.87-37.72t-36.55-11H2067V809.5h12V427h75.56q37.17,0,48.81,19.13a79.84,79.84,0,0,1,11.63,42.3v321ZM2079,49.91h101.13q19.76,0,27.31,8.7T2215,87V353.58a79.83,79.83,0,0,1-11.62,42.3Q2191.74,415,2154.55,415H2079ZM2174,379V82.3h-54V379Z" transform="translate(-0.03 0)"/><path class="cls-1" d="M2427.21,0V379h18.39l54-379h90.19L2527.2,384q17.3,2.33,26.53,9.27A40.67,40.67,0,0,1,2567,409.5a57.19,57.19,0,0,1,4.63,19.69q.55,10.43.58,19.7V844h-91V463h-54V844h-92V0Zm-53,34.84V809.46h12V427H2497.1q23.12,0,23.11,24.33V809.47h11.59V451.32q0-36.33-34.36-36.33h-10.23L2548,33.68h-12.75l-61,381.31h-88V34.84Z" transform="translate(-0.03 0)"/></g><g id="Marca"><g id="MNKER"><path class="cls-1" d="M1647.44,1035.81a2,2,0,0,1,1.1,2.15c-.15,1.8-.27,3.61-.41,5.41-.07.88-.15,1.77-.22,2.65v.52c0,.81.19,1,1,1.07,1.25,0,2.5.07,3.75.09l6.7.11h.46a.62.62,0,0,1,.57.67h0a6.21,6.21,0,0,1-.61,2.39,1.15,1.15,0,0,1-1,.64H1649c-.63.08-.85.28-.92.91s-.11,1.23-.12,1.84v22.89a11.08,11.08,0,0,0,.46,3.13,3.45,3.45,0,0,0,3.16,2.63,16.48,16.48,0,0,0,6.51-.65l2.5-.72c.84-.24,1-.15,1.31.68l.06.1v.58a2.08,2.08,0,0,1-1.23,1.28,46.85,46.85,0,0,1-7.18,3.16,19.59,19.59,0,0,1-5.14,1,8.34,8.34,0,0,1-2.85-.36,6.3,6.3,0,0,1-4.64-5.54,15.44,15.44,0,0,1-.13-2.25v-26.34a8.21,8.21,0,0,0-.09-1.21,1,1,0,0,0-.82-.85,8.27,8.27,0,0,0-1-.12,6.88,6.88,0,0,1-2.24-.5,5.65,5.65,0,0,1,1-2.49l4-5.55,4.38-6.17a3.9,3.9,0,0,1,1.26-1.23Z" transform="translate(-0.03 0)"/><path class="cls-1" d="M1403,1051.85a10.25,10.25,0,0,0,1.35-1,18.79,18.79,0,0,1,7.44-3.69,20.25,20.25,0,0,1,10.73.16,15.28,15.28,0,0,1,10.32,9.42,25.64,25.64,0,0,1,1.83,11.71,21.79,21.79,0,0,1-17.24,19.36,23.26,23.26,0,0,1-11.42-.52l-2.33-.66-.56-.13v13.17c0,4.18.12,8.2.2,12.3a11.15,11.15,0,0,0,.1,1.15c.07.56.29.76.86.83a10.62,10.62,0,0,0,1.27.08h5.66c.59,0,1.12.09,1.36.73a1.88,1.88,0,0,1-.27,2.06,1.33,1.33,0,0,1-1.11.37h-21.72c-.84,0-1.09-.21-1.21-1a5.57,5.57,0,0,1,0-1,.94.94,0,0,1,.81-1,3.65,3.65,0,0,1,.74-.08H1394a4,4,0,0,0,.69,0,.84.84,0,0,0,.84-.84v-38c0-4.29,0-8.59-.1-12.88,0-2.27-.24-4.54-.37-6.8-.08-1.25-.18-2.5-.27-3.75v-.35c-.07-.66-.3-.88-1-.89h-6.29c-1.09,0-1.11-.24-.92-1.18v-.17a2.16,2.16,0,0,1,2.28-2h.16l12.24-.44a5.34,5.34,0,0,1,.8,0,.7.7,0,0,1,.68.67,8.33,8.33,0,0,1,.08.86v2.6A3.43,3.43,0,0,1,1403,1051.85Zm-.12,16.75h0v12.71a2.8,2.8,0,0,0,1.32,2.37,13.71,13.71,0,0,0,9.62,2.26,12.48,12.48,0,0,0,8.69-5.17,22.29,22.29,0,0,0,4.29-12.66,23,23,0,0,0-.57-5.85,16.54,16.54,0,0,0-3.37-7.2,11.82,11.82,0,0,0-6.79-4.21,16.62,16.62,0,0,0-6.88,0,12.62,12.62,0,0,0-4.48,1.94,3.85,3.85,0,0,0-1.85,3.51v2.48c0,3.29,0,6.57,0,9.82Z" transform="translate(-0.03 0)"/><path class="cls-1" d="M1501.29,1083.72l-.61.29c-2.68,1.26-5.35,2.56-8,3.77a13.18,13.18,0,0,1-9.85.51,9.19,9.19,0,0,1-4.08-2.62,8.57,8.57,0,0,1-2-6,10.57,10.57,0,0,1,3.53-7.59,20.86,20.86,0,0,1,5.45-3.64,46.73,46.73,0,0,1,10.91-3.67l3.39-.69.28-.06c.87-.22,1.1-.54,1-1.45-.13-2.06-.24-4.11-.43-6.16a23.11,23.11,0,0,0-.57-3.41,6,6,0,0,0-4.75-4.67,13.65,13.65,0,0,0-6-.11,4.5,4.5,0,0,0-3.67,4.08c-.11,1.09-.2,2.19-.24,3.28a2.91,2.91,0,0,1-1.71,2.72c-1.14.57-2.24,1.2-3.36,1.8a5.48,5.48,0,0,1-1.11.48c-.68.2-1,0-1.14-.74a10.21,10.21,0,0,1,.44-4.62,12.1,12.1,0,0,1,3.22-5.06,17.44,17.44,0,0,1,9.87-5,19.74,19.74,0,0,1,5.64,0c.89.13,1.79.26,2.67.46a9.74,9.74,0,0,1,7.65,7.64,23.94,23.94,0,0,1,.58,6.37c-.08,4.18-.14,8.36-.23,12.53-.06,2.44-.17,4.89-.26,7.33a6.87,6.87,0,0,0,.27,2.63,3.55,3.55,0,0,0,.28.63,1.23,1.23,0,0,0,1.62.63h0a7.13,7.13,0,0,0,1.24-.61c.67-.41,1.32-.87,2-1.31a1.07,1.07,0,0,1,1.24-.15,1.58,1.58,0,0,1,.87,1.4,1.15,1.15,0,0,1-.34.64,5,5,0,0,1-.68.54l-6.47,4.66a4,4,0,0,1-1.85.77,3,3,0,0,1-2.57-.89,4.86,4.86,0,0,1-1.12-1.74c-.3-.77-.57-1.55-.86-2.33A2.4,2.4,0,0,0,1501.29,1083.72Zm0-10h0v-6.12a5.55,5.55,0,0,0-.09-1,.67.67,0,0,0-.66-.66h-.13a2.72,2.72,0,0,0-.63.08c-1.84.48-3.69.94-5.52,1.46a22.86,22.86,0,0,0-5.27,2.17,10,10,0,0,0-3.89,3.93,6.62,6.62,0,0,0-.78,2.64,7.74,7.74,0,0,0,1.82,5.51,5.57,5.57,0,0,0,3.35,2,10.06,10.06,0,0,0,2.12.17,22.81,22.81,0,0,0,8.73-2.19,1.51,1.51,0,0,0,1-1.5v-6.5Z" transform="translate(-0.03 0)"/><path class="cls-1" d="M1577.15,1063.36l-9.3-.17h-2a8.34,8.34,0,0,0-1,0c-.65.06-.9.3-.92,1a26.12,26.12,0,0,0,.83,8.76,15.29,15.29,0,0,0,23.77,8.21c1.2-.87,2.28-1.89,3.42-2.84a7.14,7.14,0,0,1,.82-.63,1,1,0,0,1,1.23.08l.22.19c.83.78.87,1.26.13,2.11a28.38,28.38,0,0,1-7.26,6.2,20.69,20.69,0,0,1-9,2.71,24.2,24.2,0,0,1-8.47-.76,17.37,17.37,0,0,1-12.07-11.45,23.94,23.94,0,0,1-1.26-6.15,26.77,26.77,0,0,1,0-5.37c.79-6.66,3.52-12.24,9.1-16.2a21.05,21.05,0,0,1,8.12-3.33,19.94,19.94,0,0,1,6.26-.36,15.28,15.28,0,0,1,9.25,4,14.75,14.75,0,0,1,3.32,5.1,21.36,21.36,0,0,1,1.5,6.44v.23c.07,1.46-.22,1.81-1.65,2a45,45,0,0,1-7.43.47c-2.52,0-5-.12-7.57-.18Zm9.17-3V1060c-.13-1.11-.22-2.22-.39-3.33a11.83,11.83,0,0,0-2.14-5.37,8.57,8.57,0,0,0-6.54-3.53,10.18,10.18,0,0,0-7.07,2.17,14.33,14.33,0,0,0-4.61,5.89,15.11,15.11,0,0,0-1.16,4.1c-.08.67.11.86.79.91h3.18l14.09-.34c1.25,0,2.53-.06,3.86-.11Z" transform="translate(-0.03 0)"/><path class="cls-1" d="M1534.64,1088.67a20.87,20.87,0,0,1-8.54-1.65,14.7,14.7,0,0,1-3.85-2.42,3.46,3.46,0,0,1-1.2-2.11,3.16,3.16,0,0,1,.31-1.91,6.27,6.27,0,0,1,2.21-2.47.87.87,0,0,1,1.23.07h0l.09.12a6.45,6.45,0,0,1,.54.82,16.84,16.84,0,0,0,2.36,3.2,11.42,11.42,0,0,0,6.5,3.49,9.83,9.83,0,0,0,4.57-.33,5.66,5.66,0,0,0,4.06-5.1,9.12,9.12,0,0,0-.25-3.33,5.88,5.88,0,0,0-3-3.86c-1.47-.8-3-1.57-4.45-2.34-2.72-1.4-5.46-2.77-8.18-4.18a16.52,16.52,0,0,1-1.73-1,8.63,8.63,0,0,1-3.92-6.13,10.1,10.1,0,0,1,2.8-9,18.93,18.93,0,0,1,1.41-1.28,16.53,16.53,0,0,1,8.82-3.71,20.1,20.1,0,0,1,8,1,7.85,7.85,0,0,1,5.16,4.91c.57,1.39.26,2.15-1.15,2.67a24,24,0,0,1-2.61.72,1.41,1.41,0,0,1-1.63-.7,12,12,0,0,1-.67-1.28c-.16-.33-.27-.68-.41-1a5.7,5.7,0,0,0-5.06-3.8,8.28,8.28,0,0,0-4.86.92,6.55,6.55,0,0,0-3.43,5.12,7.8,7.8,0,0,0,.1,2.81,5.1,5.1,0,0,0,2.67,3.58l6.74,3.56c2.42,1.27,4.83,2.56,7.13,4a13.9,13.9,0,0,1,2.51,1.94,8.84,8.84,0,0,1,2.64,5.75,9.72,9.72,0,0,1-.48,3.47,12.34,12.34,0,0,1-7.12,7.89A16.93,16.93,0,0,1,1534.64,1088.67Z" transform="translate(-0.03 0)"/><path class="cls-1" d="M1600.63,1050.79a13,13,0,0,1,0-1.53,1.19,1.19,0,0,1,1.09-1.06,8.15,8.15,0,0,1,1.2-.13l10.92-.25a4.69,4.69,0,0,1,.75,0c.35,0,.47.16.51.51a4.69,4.69,0,0,1,0,.75c-.06,2.19-.12,4.39-.19,6.58a1,1,0,0,0,.12.52,3.21,3.21,0,0,0,.19-.31c.53-1.13,1-2.29,1.58-3.4a14.42,14.42,0,0,1,5.22-5.89,7.42,7.42,0,0,1,2.6-1.07,6.06,6.06,0,0,1,5.15,1.48,8.88,8.88,0,0,1,1.89,2.25,1.4,1.4,0,0,1,.17,1.16,6.28,6.28,0,0,1-2.79,3.76,2.45,2.45,0,0,1-2.17.21,5.87,5.87,0,0,1-1.86-1l-.61-.53c-.25-.21-.49-.43-.76-.63a3.3,3.3,0,0,0-4.66.28h0a2.91,2.91,0,0,0-.53.81,16.64,16.64,0,0,0-2.12,6.66c-.34,3.47-.4,7-.48,10.44-.07,2.85-.15,5.7-.19,8.55a24.62,24.62,0,0,0,.48,4.53,1,1,0,0,0,.94.93,5.29,5.29,0,0,0,.8.06h5.78c.8.06,1.16.39,1.21,1.18a4.18,4.18,0,0,1,0,1,1,1,0,0,1-1,.93,11.53,11.53,0,0,1-1.44,0l-7.45-.09h-7.51c-1.35,0-2.7.06-4,.07a7,7,0,0,1-.92-.08,1,1,0,0,1-.8-.67,2.23,2.23,0,0,1,0-1.53,1.18,1.18,0,0,1,1.2-.82h3.87a1,1,0,0,0,1.16-.8v-.14a13.48,13.48,0,0,0,.24-2c.07-1.79.12-3.58.13-5.37v-15.26c0-2.68-.24-5.35-.36-8a9.87,9.87,0,0,0-.06-1.33c0-.8-.23-1-1-1-1.29,0-2.58.1-3.87.16l-1.5.06A4.17,4.17,0,0,1,1600.63,1050.79Z" transform="translate(-0.03 0)"/><path class="cls-1" d="M1455.32,1047.83v8.5c.29-.16.28-.39.35-.57a21.14,21.14,0,0,1,1.78-3.94,15.74,15.74,0,0,1,4.87-5.17,7,7,0,0,1,2.64-1.12,5.77,5.77,0,0,1,4.45,1,8.59,8.59,0,0,1,2.41,2.54,1.86,1.86,0,0,1,.12,1.93,10.45,10.45,0,0,1-2.1,2.88,2.47,2.47,0,0,1-2.24.65,4.56,4.56,0,0,1-2.25-1.11c-.39-.34-.77-.7-1.18-1a4.17,4.17,0,0,0-2.24-1,2.82,2.82,0,0,0-2.32.81,4.65,4.65,0,0,0-1,1.59,30,30,0,0,0-2.1,7.84,84,84,0,0,0-.57,12.28c0,1.93,0,3.85.11,5.78a35.54,35.54,0,0,0,.39,3.56c.14.94.54,1.24,1.5,1.24h6.3a1,1,0,0,1,1,1,5.31,5.31,0,0,1,0,1.26.91.91,0,0,1-.89.84c-.86.06-1.73.09-2.59.08-4.68,0-9.36-.13-14-.17-1.15,0-2.31.08-3.46.1a9.84,9.84,0,0,1-1.33,0,.93.93,0,0,1-1-.85v-.15a5.57,5.57,0,0,1,0-1,1,1,0,0,1,.74-.93,3.1,3.1,0,0,1,.85-.15h3.29c1.09,0,1.38-.3,1.52-1.37a39.8,39.8,0,0,0,.28-5v-12c0-4-.09-8-.39-12-.06-.81-.09-1.61-.14-2.42a3,3,0,0,0-.07-.51.54.54,0,0,0-.57-.5h-1.14l-5,.26h-.3a15.88,15.88,0,0,1,0-1.69,1.17,1.17,0,0,1,1-1,6.33,6.33,0,0,1,1.15-.13l11.32-.24Z" transform="translate(-0.03 0)"/><path class="cls-1" d="M923.93,998.59v133.78h384.86V998.59Zm90,92.35a1.56,1.56,0,0,1-1.68,1.3h-8.39a1.56,1.56,0,0,1-1.68-1.3V1066.2c-3.81,7.71-7.71,15.41-11.52,23.12a2.12,2.12,0,0,1-1.37.84h-8a2,2,0,0,1-1.45-.84v.08l-12.43-24V1091a1.54,1.54,0,0,1-1.6,1.3h-8.55a1.35,1.35,0,0,1-1.52-1.16h0v-51a1.37,1.37,0,0,1,1.36-1.38H966a2.12,2.12,0,0,1,1.45.84L985.27,1076l16.94-36.32a2.21,2.21,0,0,1,1.53-.84h8.55a1.56,1.56,0,0,1,1.68,1.37Zm72.26,0a1.48,1.48,0,0,1-1.6,1.3H1076a2,2,0,0,1-1.3-.53c-7.78-11.14-14.42-20.68-22.28-31.89V1091a1.54,1.54,0,0,1-1.6,1.3h-8.55a1.54,1.54,0,0,1-1.6-1.3v-50.8a1.53,1.53,0,0,1,1.6-1.37h8.62a2,2,0,0,1,1.3.53c7.63,11,14.65,20.75,22.36,31.82v-31a1.48,1.48,0,0,1,1.58-1.37h8.41a1.49,1.49,0,0,1,1.6,1.35v50.78Zm68.06,1.3h-11.14a3.23,3.23,0,0,1-1.3-.53l-14.42-17.85-.69.84v-.08c-.84.92-1.53,1.83-2.44,2.75V1091a1.54,1.54,0,0,1-1.6,1.3h-8.47a1.56,1.56,0,0,1-1.68-1.3v-50.8a1.56,1.56,0,0,1,1.68-1.37h8.53a1.53,1.53,0,0,1,1.6,1.37v21.21c6-7.4,12-14.73,17.93-22.05a3.23,3.23,0,0,1,1.3-.53h10.61c1.37,0,2.14,1.14,1.22,2.14l-20.3,25,20.45,24.11c.92,1,.15,2.14-1.22,2.14Zm59.9-1.3a1.56,1.56,0,0,1-1.68,1.3h-33.75a1.48,1.48,0,0,1-1.6-1.3V1040.2a1.48,1.48,0,0,1,1.58-1.37h33.21a1.53,1.53,0,0,1,1.6,1.37v8.17a1.53,1.53,0,0,1-1.6,1.37h-23.12V1060h19.53a1.46,1.46,0,0,1,1.53,1.37v8.24a1.45,1.45,0,0,1-1.53,1.3h-19.53v10.22h23.73a1.56,1.56,0,0,1,1.68,1.37Zm61.27,1.3h-10a2,2,0,0,1-1.45-.76l.08.08-12.82-20.45h-2.29V1091a1.48,1.48,0,0,1-1.6,1.3h-8.47a1.54,1.54,0,0,1-1.6-1.3v-29.61a1.53,1.53,0,0,1,1.6-1.37h5.49c-1-1.68-2.14-3.2-3.2-4.88l-3.89-6.26v-8.63a1.53,1.53,0,0,1,1.6-1.37h16.94s18.54,0,18.54,16.1c0,9-5.49,13-10.53,14.73l12.82,20.6v-.06a1.29,1.29,0,0,1-.24,1.81h0a1.29,1.29,0,0,1-1,.25ZM1255.81,1050H1251l6.26,9.92c2.44-.15,5.34-1.22,5.34-5,0-5-5.34-5-6.79-5Z" transform="translate(-0.03 0)"/></g><g id="Rectángulo_2" data-name="Rectángulo 2"><rect class="cls-1" x="901.07" y="975.4" width="11.42" height="179.8"/></g><g id="Rectángulo_2_copia_3" data-name="Rectángulo 2 copia 3"><rect class="cls-1" x="1677.35" y="975.4" width="11.42" height="179.8"/></g><g id="Rectángulo_2_copia" data-name="Rectángulo 2 copia"><rect class="cls-1" x="903.92" y="975.4" width="773.43" height="11.42"/></g><g id="Rectángulo_2_copia_2" data-name="Rectángulo 2 copia 2"><rect class="cls-1" x="905.35" y="1143.79" width="772.01" height="11.42"/></g></g></svg>