<svg id="STREET_IS_OURS" data-name="STREET IS OURS" xmlns="http://www.w3.org/2000/svg" viewBox="0 0 3073.39 2351.67"><defs><style>.cls-1{fill:#fff;}</style></defs><title>STREET IS OURS</title><g id="IS"><path class="cls-1" d="M2204.83,1507V1286.81l-196.87-.14h-1.39l-94,39v.86l-.47,259.36,219.32,126.88,1.81.9h-31.72v174.92h-86.09V1715.48H1912.1V1991.9h292.73V1642.08l-189.41-109.66.15-140.75a34,34,0,0,1,4.38-1.54h81.56V1507Zm-347.1,73.41-.16-230.78-99.5,41.43-193.5,80.57.06.27.37,1.57V1991.9h103.31V1645.67l116,67.07,1.81.9H1754.4v278.23h103.32V1637.54l-49.85-29Zm-103.32,1.81L1672.69,1535l81.88-34.28Zm-243.84-109.45v-.14l-103-43v.09l-.26,458.83h-86.1l.36-494.77v-.15l-104-44v.69l.32,641.54h292.73Zm-444-186.14h-1.4l-194.38.14V1991.9h292.73V1327.67Zm-6.37,601.92H974.11V1390.13l81.46-.46s4.63,2.46,4.63,2.8Z" transform="translate(0.01)"/><path class="cls-1" d="M1536.33,761.11l-567,237.11,194.34,81.27,372.62,155.83,372.86-155.93,194.1-81.17Zm41,88.38a214.82,214.82,0,0,1,34.5,3.66q17.54,3.29,28.33,10.22-2.31,5-5.4,11T1629,885.55q-2.7,5.21-4.63,8.67a32,32,0,0,1-2.31,3.86,22.52,22.52,0,0,1-4.62-2.7,31,31,0,0,0-7.71-3.66,73,73,0,0,0-12.72-2.89,95.7,95.7,0,0,0-19.66-.39Zm-117.41,288.7h-47V854.12h47Zm101.61,1.54h-.77a187.13,187.13,0,0,1-19.08-1,153.29,153.29,0,0,1-19.85-3.28,104.34,104.34,0,0,1-19.09-6.36,60.71,60.71,0,0,1-15.61-9.82l8.1-33.15a82.39,82.39,0,0,0,13.68,6q8.29,2.89,17.16,5.4a173.37,173.37,0,0,0,17.73,4,96.93,96.93,0,0,0,16.57,1.55h1.16Zm0-128q-12.72-6.15-25.44-13.29A121.44,121.44,0,0,1,1513,981.67a83.62,83.62,0,0,1-17.15-22.36c-.6-1.13-1.16-2.28-1.67-3.47-.12-.27-.24-.54-.34-.82s-.31-.72-.45-1.09-.22-.54-.31-.82-.24-.62-.34-.93-.24-.66-.34-1-.27-.81-.39-1.22c-.07-.2-.13-.41-.19-.61-.12-.4-.23-.81-.33-1.22-.32-1.11-.59-2.24-.83-3.4-.12-.57-.23-1.15-.34-1.73s-.2-1.11-.29-1.67-.19-1.24-.27-1.87-.16-1.27-.23-1.92v-.35c-.06-.61-.12-1.22-.16-1.84h0c0-.63-.09-1.27-.12-1.91v-.38c0-.6,0-1.2-.06-1.81v-2.37a76.76,76.76,0,0,1,5.78-30.45,78.58,78.58,0,0,1,15.61-23.7,74,74,0,0,1,23.13-16.19,100,100,0,0,1,27.95-7.9v40.47A42.67,42.67,0,0,0,1541.14,906c-.61.79-1.18,1.59-1.71,2.38-.25.36-.48.71-.7,1.07l-.12.19q-.34.54-.66,1.08v.08c-.19.32-.37.63-.53.94s-.2.35-.29.52-.27.5-.39.75a2.1,2.1,0,0,0-.15.3l-.51,1a34.22,34.22,0,0,0-1.8,4.8c-.12.4-.23.8-.32,1.2s-.16.67-.23,1a1.65,1.65,0,0,0-.06.32q-.09.39-.15.78a3.08,3.08,0,0,0-.08.53,5.36,5.36,0,0,0-.1.7,3.7,3.7,0,0,0-.07.57c0,.25-.06.51-.08.76a.38.38,0,0,0,0,.15v2.21q0,15,8.1,24.28a76.33,76.33,0,0,0,20.43,16.19Zm85.37,75.55a79.58,79.58,0,0,1-14.64,23.71,82,82,0,0,1-23.32,17.92,92.59,92.59,0,0,1-31.61,9.64v-37q31.61-7.69,31.61-42,0-13.48-8.87-22.36a102.37,102.37,0,0,0-22.74-16.57v-45.1q12.72,5.79,26,12.34a111.17,111.17,0,0,1,24.09,16,76.86,76.86,0,0,1,17.73,22.94q6.93,13.48,6.94,33.53a72.4,72.4,0,0,1-5.19,27Z" transform="translate(0.01)"/></g><g id="Grupo_1" data-name="Grupo 1"><g id="EET"><path class="cls-1" d="M1894.57,235.67l-81.46-32.88V309.17l59.24,23.91v76.75l-59.24-23.91V505.75l81.46,32.92V432.26l150.8,60.87V709.91L1584.23,523.77V413.36l40.39,16.3v-303l-40.39-16.3V0l461.16,186.14V389.45l-150.82-60.86Z" transform="translate(0.01)"/><path class="cls-1" d="M2389.4,435.41,2308,402.53V508.9l59.24,23.91v76.75L2308,585.67V705.5l81.46,32.88V632l150.8,60.87v216.8L2079,723.53V613.09l40.39,16.3v-303L2079,310.09V199.73L2540.2,385.87V589.18l-150.8-60.87Z" transform="translate(0.01)"/><path class="cls-1" d="M2567.12,396.74l506.26,204.35V764.67l-115.81-46.73V664.76l-43.09-17.39v303l47.13,19v110.41L2678.87,965.62V855.21l47.13,19V571.28l-43.09-17.39v53.18l-115.79-46.74Z" transform="translate(0.01)"/></g><g id="STR"><path class="cls-1" d="M195.9,945.06q22.22-9.16,31.64-19.79A35.23,35.23,0,0,0,237,901.19q0-9.42-7.74-13.3T198,884.31q-49.83,1.73-87.18,0t-62-12.54Q24.23,861,12.12,838.1T0,775.44a224.6,224.6,0,0,1,11.78-72.52q11.78-34.8,38.37-67t70.69-61.48q44.08-29.3,108.73-56Q288.14,494.28,340,484.67t86.17-4.24V600.94L284.77,659.26q0-19.51-10.77-22.15t-26.26,3.76q-22.22,9.17-32,18.91A32.46,32.46,0,0,0,206,683.67q0,11.46,10.44,12.52t31.3-.8q39-3.32,73.72-3.48t60.93,9.87a83.75,83.75,0,0,1,41.4,33.41q15.15,23.38,15.15,66.46,0,87.52-56.55,153.6T216.76,1066.32q-62,25.54-119.16,38.39T6,1116.9V983.67l148.11-61.1q0,20.2,8.08,26.63T195.9,945.06Z" transform="translate(0.01)"/><path class="cls-1" d="M457.77,433.76,964,224.91V388.5L848.24,436.27V383.09l-43.09,17.77v303l47.13-19.44V794.83L569.57,911.43V801l47.13-19.44V478.67L573.57,496.4v53.18L457.78,597.35Z" transform="translate(0.01)"/><path class="cls-1" d="M1211.77,536.07l44.43-18.33V628.15L982.87,740.91V630.5l40.39-16.66v-303L982.87,327.5V217.14l315.7-130.26q41.06-16.93,74.39-22.61T1429.17,67q22.88,8.41,35.34,32.21T1477,164.76a207.35,207.35,0,0,1-17.84,84.78,178.85,178.85,0,0,1-52.17,68l.67,6.46q64.63-16.58,64.63,52.78v51.84l31.64-13.05V526l-213.41,88V455.78q0-20.2-4.38-30.85t-14.14-13q-9.77-2.35-24.57,1.39a273.2,273.2,0,0,0-35.62,12.35Zm36.35-207.54q19.52-8.05,29.28-22.18t9.76-37V245.11q0-22.87-9.76-29t-29.28,2l-36.35,15V343.52Z" transform="translate(0.01)"/></g></g><g id="Marca_copia" data-name="Marca copia"><g id="prasert_logo_basico_Imagen" data-name="prasert logo basico Imagen"><path class="cls-1" d="M1996.2,2226.79a2.57,2.57,0,0,1,1.43,2.78c-.19,2.33-.35,4.67-.53,7-.09,1.14-.2,2.28-.29,3.42v.67c0,1.05.25,1.35,1.29,1.38q2.43.08,4.86.12l8.67.14a2.91,2.91,0,0,1,.59,0,.8.8,0,0,1,.74.85h0a7.94,7.94,0,0,1-.79,3.09,1.52,1.52,0,0,1-1.34.82h-12.62c-.81.1-1.1.37-1.19,1.18s-.15,1.59-.16,2.38v29.6a14.29,14.29,0,0,0,.59,4,4.49,4.49,0,0,0,4.08,3.4,21.19,21.19,0,0,0,8.41-.84c1.08-.3,2.15-.62,3.23-.93s1.35-.19,1.7.88a.57.57,0,0,0,.08.13v.75a2.81,2.81,0,0,1-1.59,1.65,60.4,60.4,0,0,1-9.28,4.09,25.54,25.54,0,0,1-6.64,1.3,10.7,10.7,0,0,1-3.69-.46,8.15,8.15,0,0,1-6-7.16,21.6,21.6,0,0,1-.16-2.9v-34.07a11.69,11.69,0,0,0-.11-1.56,1.21,1.21,0,0,0-1.06-1.1,9.84,9.84,0,0,0-1.33-.15,9.26,9.26,0,0,1-2.89-.65,7.33,7.33,0,0,1,1.23-3.22q2.57-3.59,5.11-7.18l5.67-8a5,5,0,0,1,1.63-1.59Z" transform="translate(0.01)"/><path class="cls-1" d="M1680.17,2247.54c.67-.47,1.23-.83,1.75-1.25a24.06,24.06,0,0,1,9.62-4.78,26.22,26.22,0,0,1,13.87.2,19.8,19.8,0,0,1,13.35,12.18,33.22,33.22,0,0,1,2.37,15.14,28.18,28.18,0,0,1-22.29,25,30,30,0,0,1-14.76-.68l-3-.85-.72-.17v.81c0,5.41,0,10.81.06,16.22s.16,10.61.25,15.91a14.72,14.72,0,0,0,.13,1.49,1,1,0,0,0,.92,1.07.61.61,0,0,0,.19,0c.55.06,1.09.1,1.64.11h7.32c.76,0,1.45.12,1.76.95a2.45,2.45,0,0,1-.36,2.66,1.74,1.74,0,0,1-1.44.48h-28.11c-1.09,0-1.41-.27-1.57-1.36a7.48,7.48,0,0,1-.06-1.34,1.21,1.21,0,0,1,1.05-1.26,4.19,4.19,0,0,1,1-.1h5.38a6.54,6.54,0,0,0,.89-.06c.75-.12,1-.41,1.09-1.18v-17.19c0-4.41,0-8.82.06-13.23V2277.7c0-5.55,0-11.11-.13-16.66-.06-2.94-.3-5.87-.48-8.8-.1-1.62-.23-3.23-.34-4.84v-.4c-.09-.85-.38-1.14-1.25-1.15h-8.14c-1.23,0-1.44-.31-1.2-1.52a.41.41,0,0,1,0-.22c.49-1.88,1.21-2.46,3.16-2.53L1678,2241a8.39,8.39,0,0,1,1,.06.93.93,0,0,1,.88.87,8.32,8.32,0,0,1,.1,1.11v3.36C1680.05,2246.75,1680.12,2247.06,1680.17,2247.54Zm-.15,21.66h0v16.44a3.62,3.62,0,0,0,1.71,3.07,17.79,17.79,0,0,0,12.44,2.92,16.17,16.17,0,0,0,11.23-6.68,28.72,28.72,0,0,0,5.54-16.37,29.59,29.59,0,0,0-.74-7.56,21.43,21.43,0,0,0-4.36-9.31,15.28,15.28,0,0,0-8.78-5.44,21.53,21.53,0,0,0-8.9,0,16.18,16.18,0,0,0-5.79,2.51,5,5,0,0,0-2.39,4.53v15.88Z" transform="translate(0.01)"/><path class="cls-1" d="M1807.2,2288.74l-.79.37c-3.47,1.63-6.92,3.31-10.41,4.87a17.09,17.09,0,0,1-12.74.67,12,12,0,0,1-5.28-3.39,11.12,11.12,0,0,1-2.62-7.81,13.65,13.65,0,0,1,4.56-9.82,27.41,27.41,0,0,1,7-4.71,60.6,60.6,0,0,1,14.11-4.75c1.46-.31,2.93-.6,4.39-.9l.37-.08c1.13-.29,1.43-.69,1.35-1.87-.17-2.66-.31-5.32-.55-8a29.85,29.85,0,0,0-.74-4.41,7.75,7.75,0,0,0-6.14-6,17.76,17.76,0,0,0-7.78-.14,5.82,5.82,0,0,0-4.75,5.28c-.15,1.41-.25,2.83-.3,4.24a3.75,3.75,0,0,1-2.21,3.52c-1.47.73-2.89,1.56-4.35,2.32a8.24,8.24,0,0,1-1.43.62c-.88.25-1.34,0-1.48-1a13.27,13.27,0,0,1,.57-6,15.62,15.62,0,0,1,4.17-6.54,22.59,22.59,0,0,1,12.76-6.49,25.51,25.51,0,0,1,7.3,0c1.16.16,2.32.33,3.45.6,5.31,1.26,8.56,4.61,9.89,9.87a30.8,30.8,0,0,1,.75,8.23c-.1,5.4-.18,10.81-.3,16.21-.07,3.16-.23,6.32-.34,9.48a8.87,8.87,0,0,0,.34,3.4,6,6,0,0,0,.36.82,1.6,1.6,0,0,0,2.1.82h0a8.81,8.81,0,0,0,1.6-.79c.87-.54,1.7-1.13,2.55-1.7a1.38,1.38,0,0,1,1.6-.19,2,2,0,0,1,1.13,1.81,1.47,1.47,0,0,1-.44.82,5.35,5.35,0,0,1-.88.69l-8.37,6a5.12,5.12,0,0,1-2.39,1,3.84,3.84,0,0,1-3.33-1.15,6.27,6.27,0,0,1-1.45-2.24c-.38-1-.74-2-1.11-3A1.28,1.28,0,0,0,1807.2,2288.74Zm0-12.86h0V2268a8.55,8.55,0,0,0-.11-1.34.85.85,0,0,0-.85-.85h-.15a3.76,3.76,0,0,0-.81.11c-2.38.62-4.77,1.21-7.14,1.89a29.19,29.19,0,0,0-6.82,2.81,12.86,12.86,0,0,0-5,5.08,8.51,8.51,0,0,0-1,3.41,10,10,0,0,0,2.36,7.13,7.17,7.17,0,0,0,4.33,2.6,13.22,13.22,0,0,0,2.74.22,29.53,29.53,0,0,0,11.29-2.84,2,2,0,0,0,1.24-1.94v-8.37Z" transform="translate(0.01)"/><path class="cls-1" d="M1905.31,2262.41l-12-.22-2.61-.07a10,10,0,0,0-1.34,0c-.84.08-1.16.39-1.19,1.24a34,34,0,0,0,1.07,11.32c2,6.49,6,11.09,12.45,13.32a19.06,19.06,0,0,0,18.29-2.71c1.55-1.12,3-2.45,4.43-3.67a12,12,0,0,1,1.07-.81,1.28,1.28,0,0,1,1.59.1l.28.24c1.08,1,1.12,1.62.17,2.73a36.38,36.38,0,0,1-9.39,8,26.93,26.93,0,0,1-11.62,3.51,31.16,31.16,0,0,1-11-1c-7.76-2.23-12.87-7.26-15.61-14.8a31.17,31.17,0,0,1-1.63-8,35,35,0,0,1,0-6.94c1-8.61,4.55-15.83,11.77-21a27.17,27.17,0,0,1,10.5-4.3,25.93,25.93,0,0,1,8.1-.46,20.13,20.13,0,0,1,12,5.2,19.21,19.21,0,0,1,4.29,6.59,27.48,27.48,0,0,1,1.94,8.33v.3c.09,1.88-.29,2.34-2.13,2.62a59.44,59.44,0,0,1-9.61.61c-3.26,0-6.52-.15-9.79-.23Zm11.86-3.82v-.46c-.16-1.43-.29-2.88-.51-4.3a15.24,15.24,0,0,0-2.76-6.94,11.1,11.1,0,0,0-8.46-4.57,13.2,13.2,0,0,0-9.15,2.81,18.52,18.52,0,0,0-6,7.62,19.94,19.94,0,0,0-1.5,5.3c-.11.87.14,1.12,1,1.18h4.11l18.23-.44c1.68-.07,3.32-.12,5-.2Z" transform="translate(0.01)"/><path class="cls-1" d="M1850.34,2295.14a27.14,27.14,0,0,1-11-2.14,18.7,18.7,0,0,1-5-3.13,4.46,4.46,0,0,1-1.55-2.73,4.22,4.22,0,0,1,.4-2.47,8.14,8.14,0,0,1,2.86-3.19,1.12,1.12,0,0,1,1.58.08,1.09,1.09,0,0,1,.13.17,9.24,9.24,0,0,1,.7,1.06,21.42,21.42,0,0,0,3.06,4.14,14.69,14.69,0,0,0,8.4,4.51,12.59,12.59,0,0,0,5.91-.42,7.32,7.32,0,0,0,5.25-6.6,11.76,11.76,0,0,0-.32-4.3,7.6,7.6,0,0,0-3.86-5l-5.75-3c-3.52-1.81-7.06-3.59-10.58-5.4a22.09,22.09,0,0,1-2.24-1.34,11.16,11.16,0,0,1-5.07-7.93,13,13,0,0,1,3.63-11.59,22.1,22.1,0,0,1,1.83-1.66,21.34,21.34,0,0,1,11.4-4.8,26.09,26.09,0,0,1,10.38,1.24,10.16,10.16,0,0,1,6.67,6.35c.73,1.8.33,2.78-1.49,3.45a33,33,0,0,1-3.37.93,1.83,1.83,0,0,1-2.11-.9,14.34,14.34,0,0,1-.86-1.65c-.2-.43-.36-.88-.54-1.31a7.39,7.39,0,0,0-6.55-4.92,10.73,10.73,0,0,0-6.29,1.19,8.46,8.46,0,0,0-4.44,6.62,9.9,9.9,0,0,0,.14,3.64,6.6,6.6,0,0,0,3.45,4.63l8.72,4.6c3.13,1.64,6.25,3.31,9.22,5.24a17.89,17.89,0,0,1,3.24,2.51,11.49,11.49,0,0,1,3.41,7.44,12.46,12.46,0,0,1-.62,4.49,16.05,16.05,0,0,1-9.2,10.21A21.79,21.79,0,0,1,1850.34,2295.14Z" transform="translate(0.01)"/><path class="cls-1" d="M1935.68,2246.17a16.68,16.68,0,0,1,0-2,1.52,1.52,0,0,1,1.37-1.37,10.2,10.2,0,0,1,1.56-.17l14.12-.33a8.34,8.34,0,0,1,1,0c.46,0,.61.2.66.66a8.34,8.34,0,0,1,0,1q-.12,4.26-.25,8.52a1.21,1.21,0,0,0,.16.67,3.26,3.26,0,0,0,.24-.4c.68-1.47,1.32-3,2-4.4a18.62,18.62,0,0,1,6.75-7.62,9.54,9.54,0,0,1,3.36-1.39,7.83,7.83,0,0,1,6.66,1.91,11.56,11.56,0,0,1,2.44,2.91,1.8,1.8,0,0,1,.22,1.5,8.07,8.07,0,0,1-3.61,4.86,3.18,3.18,0,0,1-2.8.27,7.39,7.39,0,0,1-2.41-1.33c-.27-.22-.52-.46-.79-.69s-.64-.56-1-.81c-2.5-1.83-5.18-1.28-6.71,1.41a21.33,21.33,0,0,0-2.74,8.62c-.44,4.49-.52,9-.62,13.51-.08,3.69-.2,7.37-.24,11.06a32.92,32.92,0,0,0,.62,5.86,1.24,1.24,0,0,0,1.22,1.2,6.74,6.74,0,0,0,1,.08h7.58A1.46,1.46,0,0,1,1967,2291v.19a5.4,5.4,0,0,1-.07,1.33,1.33,1.33,0,0,1-1.32,1.2h-1.87l-9.64-.12c-3.24,0-6.48-.06-9.71-.06-1.74,0-3.49.07-5.23.09a9.4,9.4,0,0,1-1.19-.11,1.23,1.23,0,0,1-1-.86,2.87,2.87,0,0,1,0-2,1.51,1.51,0,0,1,1.55-1.06h5a1.35,1.35,0,0,0,1.52-1.16h0a17.7,17.7,0,0,0,.31-2.52c.09-2.31.16-4.63.17-7,0-6.58,0-13.15,0-19.73,0-3.46-.3-6.92-.47-10.37a12.45,12.45,0,0,0-.08-1.72c-.06-1-.29-1.29-1.32-1.26-1.67,0-3.33.13-5,.2-.65,0-1.29.06-1.94.07A3.83,3.83,0,0,1,1935.68,2246.17Z" transform="translate(0.01)"/><path class="cls-1" d="M1747.75,2242.33v11c.37-.21.37-.51.45-.74a27.48,27.48,0,0,1,2.3-5.1,20.36,20.36,0,0,1,6.3-6.69,9.29,9.29,0,0,1,3.41-1.45,7.44,7.44,0,0,1,5.75,1.25,11.34,11.34,0,0,1,3.12,3.28,2.42,2.42,0,0,1,.16,2.49,13.11,13.11,0,0,1-2.72,3.72,3.23,3.23,0,0,1-2.9.83,6,6,0,0,1-2.91-1.44c-.51-.44-1-.9-1.52-1.32a5.22,5.22,0,0,0-2.9-1.26,3.66,3.66,0,0,0-3,1,6.17,6.17,0,0,0-1.3,2.1,38.7,38.7,0,0,0-2.71,10.14,106.71,106.71,0,0,0-.74,15.88c0,2.49,0,5,.14,7.47a44.32,44.32,0,0,0,.51,4.6c.18,1.22.7,1.6,1.94,1.6h7.55a3.75,3.75,0,0,1,.67,0,1.26,1.26,0,0,1,1.24,1.27,7.42,7.42,0,0,1-.06,1.63,1.18,1.18,0,0,1-1.15,1.09c-1.12.07-2.24.12-3.36.1-6-.07-12.1-.17-18.16-.23-1.49,0-3,.1-4.48.13a12.36,12.36,0,0,1-1.72-.06,1.21,1.21,0,0,1-1.24-1.18h0v-.06a7.48,7.48,0,0,1-.05-1.34,1.27,1.27,0,0,1,1-1.2,4.16,4.16,0,0,1,1.1-.19h4.26c1.42,0,1.79-.39,2-1.77a50.07,50.07,0,0,0,.36-6.48c0-5.18.06-10.36,0-15.54s-.12-10.36-.5-15.53c-.08-1-.12-2.09-.18-3.13a3.74,3.74,0,0,0-.09-.66c-.12-.47-.3-.63-.78-.65s-1,0-1.42,0l-6.42.34h-.4a19.82,19.82,0,0,1,0-2.18,1.52,1.52,0,0,1,1.35-1.32,8.19,8.19,0,0,1,1.48-.17l14.64-.31Z" transform="translate(0.01)"/></g><path class="cls-1" d="M1060.57,2178.67v173h497.7v-173ZM1177,2298.1a2,2,0,0,1-2.17,1.68H1164a2,2,0,0,1-2.17-1.68v-32c-4.93,10-10,19.93-14.9,29.9a2.78,2.78,0,0,1-1.77,1.09h-10.36a2.62,2.62,0,0,1-1.87-1.09v.1l-16.07-31.1v33.06a2,2,0,0,1-2.07,1.68h-11.06a1.73,1.73,0,0,1-2-1.44v-66a1.78,1.78,0,0,1,1.74-1.79,1.13,1.13,0,0,1,.26,0H1115a2.75,2.75,0,0,1,1.87,1.09l23.09,47,21.91-47a2.82,2.82,0,0,1,2-1.09h11.05a2,2,0,0,1,2.17,1.78Zm93.44,0a1.91,1.91,0,0,1-2.07,1.68h-11a2.49,2.49,0,0,1-1.68-.69c-10.07-14.41-18.65-26.74-28.81-41.25v40.26a2,2,0,0,1-2.07,1.68h-11a2,2,0,0,1-2.07-1.68v-65.62a2,2,0,0,1,2.07-1.77h11.15a2.49,2.49,0,0,1,1.68.69c9.87,14.21,18.94,26.84,28.91,41.15v-40.07a1.91,1.91,0,0,1,2-1.82h11a1.91,1.91,0,0,1,2.07,1.74h0Zm88,1.68H1344a4.28,4.28,0,0,1-1.68-.69L1323.72,2276l-.89,1.09v-.1c-1.09,1.18-2,2.37-3.16,3.55v17.56a2,2,0,0,1-2.07,1.68h-11a2,2,0,0,1-2.17-1.68v-65.62a2,2,0,0,1,2.17-1.77h11a2,2,0,0,1,2.07,1.77v27.43c7.7-9.57,15.5-19,23.19-28.52a4.28,4.28,0,0,1,1.68-.69h13.72c1.77,0,2.76,1.48,1.58,2.76l-26.27,32.37L1360,2297c1.19,1.28.2,2.76-1.58,2.76Zm77.46-1.68a2,2,0,0,1-2.17,1.68H1390a1.91,1.91,0,0,1-2.07-1.68v-65.62a1.9,1.9,0,0,1,2-1.77h43a2,2,0,0,1,2.07,1.77V2243a2,2,0,0,1-2.07,1.77H1403V2258h25.26a1.87,1.87,0,0,1,2,1.75v10.69a1.88,1.88,0,0,1-2,1.68H1403v13.22h30.69a2,2,0,0,1,2.17,1.78Zm79.24,1.68H1502.2a2.53,2.53,0,0,1-1.87-1l.1.1-16.58-26.45h-3v25.65a1.91,1.91,0,0,1-2.07,1.68h-11a2,2,0,0,1-2.07-1.68v-38.29a2,2,0,0,1,2.07-1.78h7.1c-1.28-2.17-2.76-4.14-4.14-6.31l-5-8.09v-11.15a2,2,0,0,1,2.07-1.77h21.91s24,0,24,20.82c0,11.64-7.1,16.77-13.62,19l16.58,26.64v-.1c.89,1.29,0,2.67-1.58,2.67Zm-25.36-54.67h-6.23l8.09,12.83c3.16-.2,6.91-1.58,6.91-6.41,0-6.42-6.91-6.42-8.78-6.42Z" transform="translate(0.01)"/></g></svg>